<svg xmlns="http://www.w3.org/2000/svg" viewBox="0 0 587.76 133.14"><defs><style>.cls-1,.cls-2{fill:#0052cc;}.cls-1{fill-rule:evenodd;}.cls-2{font-size:120px;font-family:CharlieDisplay-Semibold, Charlie Display;font-weight:600;}.cls-3{letter-spacing:-0.04em;}.cls-4{letter-spacing:0em;}.cls-5{letter-spacing:-0.02em;}</style></defs><g id="图层_2" data-name="图层 2"><g id="图层_1-2" data-name="图层 1"><path class="cls-1" d="M26.4,36.92A14.21,14.21,0,0,1,20,42.19a27.12,27.12,0,0,1-2.62.8V71.62a13.55,13.55,0,0,1,2.63.81A14.48,14.48,0,0,1,24.64,96,14,14,0,0,1,20,99.07a13.84,13.84,0,0,1-5.72,1.08A14.34,14.34,0,0,1,1.08,91.36,14.43,14.43,0,0,1,4.17,75.75a14.73,14.73,0,0,1,7.26-3.89V42.76a14.9,14.9,0,0,1-7.26-3.89,14.41,14.41,0,0,1-3.09-15.6,14.36,14.36,0,0,1,13.21-8.81A14.35,14.35,0,0,1,20,15.54a14.14,14.14,0,0,1,4.63,3.09,14.31,14.31,0,0,1,3.08,4.64A14,14,0,0,1,28.8,29,14.2,14.2,0,0,1,26.4,36.92Zm-4.33,45a8.5,8.5,0,0,0-3.15-3.31,8.24,8.24,0,0,0-4.4-1.2,8.57,8.57,0,0,0-4.75,1.42,8.87,8.87,0,0,0-3.2,3.89A8.65,8.65,0,0,0,8.45,92a8.68,8.68,0,0,0,9.32,1.89,8.94,8.94,0,0,0,3.89-3.2,8.54,8.54,0,0,0,.41-8.81Zm-12.3-46a8.6,8.6,0,0,0,9.15.22,8.64,8.64,0,0,0,4.17-7.77A8.65,8.65,0,0,0,21.66,24a8.87,8.87,0,0,0-3.89-3.2A8.6,8.6,0,0,0,6.57,32,8.87,8.87,0,0,0,9.77,35.85Zm59.07,36a14.2,14.2,0,0,1,11.4,14,14.27,14.27,0,0,1-8.79,13.21A14.25,14.25,0,0,1,55.84,96a14.29,14.29,0,0,1-3.08-15.6A14.74,14.74,0,0,1,58,74a13.68,13.68,0,0,1,5.09-2.12V51.57h5.73ZM72,91.92a8.58,8.58,0,0,0,1.09-10.8,8.94,8.94,0,0,0-3.89-3.2,8.68,8.68,0,0,0-9.32,1.89,8.41,8.41,0,0,0-2.34,4.4A8.53,8.53,0,0,0,58,89.13,8.94,8.94,0,0,0,61.22,93,8.58,8.58,0,0,0,72,91.92Z"/><path class="cls-1" d="M61.12,28.19l-9.65,9.65,4,4,9.66-9.65,9.65,9.65,4-4-9.65-9.65,9.65-9.65-4-4-9.65,9.65-9.66-9.65-4,4Z"/><text class="cls-2" transform="translate(124.8 99.42)">Sub<tspan class="cls-3" x="199.8" y="0">F</tspan><tspan class="cls-4" x="264" y="0">l</tspan><tspan class="cls-5" x="295.56" y="0">o</tspan><tspan x="358.92" y="0">w</tspan></text></g></g></svg>