<svg xmlns="http://www.w3.org/2000/svg" viewBox="0 0 587.16 86.4"><defs><style>.cls-1,.cls-2{fill:#0052cc;}.cls-1{fill-rule:evenodd;}</style></defs><g id="图层_2" data-name="图层 2"><g id="图层_3" data-name="图层 3"><path class="cls-1" d="M26.4,22.58A14.23,14.23,0,0,1,20,27.86c-.85.34-2.62.79-2.62.79V57.29a12.87,12.87,0,0,1,2.63.8,14.48,14.48,0,0,1,4.63,23.55A14,14,0,0,1,20,84.73a13.84,13.84,0,0,1-5.72,1.08A14.3,14.3,0,0,1,1.08,77,14.44,14.44,0,0,1,4.17,61.41a14.73,14.73,0,0,1,7.26-3.89V28.42a14.82,14.82,0,0,1-7.26-3.89A14.41,14.41,0,0,1,1.08,8.93,14.36,14.36,0,0,1,14.29.12,14.53,14.53,0,0,1,20,1.2a14.14,14.14,0,0,1,7.71,7.73,14,14,0,0,1,1.09,5.72A14.19,14.19,0,0,1,26.4,22.58Zm-4.33,45a8.5,8.5,0,0,0-3.15-3.31,8.24,8.24,0,0,0-4.4-1.2,8.57,8.57,0,0,0-4.75,1.42,8.87,8.87,0,0,0-3.2,3.89,8.65,8.65,0,0,0,1.88,9.32,8.68,8.68,0,0,0,9.32,1.89,8.94,8.94,0,0,0,3.89-3.2,8.54,8.54,0,0,0,.41-8.81Zm-12.3-46a8.55,8.55,0,0,0,12.3-3.08,8.49,8.49,0,0,0,1-4.46,8.65,8.65,0,0,0-1.43-4.35,8.87,8.87,0,0,0-3.89-3.2A8.54,8.54,0,0,0,12.85,6,8.64,8.64,0,0,0,8.45,8.3a8.66,8.66,0,0,0-1.88,9.32A8.82,8.82,0,0,0,9.77,21.51Zm59.07,36a14.2,14.2,0,0,1,11.4,14,14.27,14.27,0,0,1-8.79,13.21,14.25,14.25,0,0,1-15.61-3.08A14.29,14.29,0,0,1,52.76,66,14.74,14.74,0,0,1,58,59.64a13.68,13.68,0,0,1,5.09-2.12V37.23h5.73ZM72,77.59a8.59,8.59,0,0,0,1.09-10.81,8.94,8.94,0,0,0-3.89-3.2,8.68,8.68,0,0,0-9.32,1.89,8.41,8.41,0,0,0-2.34,4.4A8.53,8.53,0,0,0,58,74.79a8.94,8.94,0,0,0,3.2,3.89A8.59,8.59,0,0,0,72,77.59Z"/><path class="cls-1" d="M61.12,13.85,51.47,23.5l4,4,9.66-9.65,9.65,9.65,4-4-9.65-9.65L78.86,4.2l-4-4L65.17,9.8,55.51.15l-4,4.05Z"/><path class="cls-2" d="M187.32,62.64q0,10.68-6.84,17.16T158.4,86.28q-11.16,0-17.7-1.92A64.61,64.61,0,0,1,129.48,80V66.24A65.45,65.45,0,0,0,143.1,71a65.88,65.88,0,0,0,15.66,2q7.68,0,10.86-2.7a8.9,8.9,0,0,0,3.18-7.14A8.39,8.39,0,0,0,169.26,56q-3.54-2.64-12.9-4.92Q142,48,135.72,42.36t-6.24-15.12a20,20,0,0,1,7.32-16Q144.12,5,158.4,5A54.82,54.82,0,0,1,173,6.78a53.63,53.63,0,0,1,10.56,4V24.24a53.36,53.36,0,0,0-13.08-4.68,60.3,60.3,0,0,0-12.6-1.44q-6.72,0-10.44,2.34a7.64,7.64,0,0,0-3.72,6.9,7.49,7.49,0,0,0,3.78,6.54q3.78,2.46,13,4.74,13.68,3,20.22,8.46T187.32,62.64Z"/><path class="cls-2" d="M197.4,60.36V24.48H211V61q0,7,2.94,10.2t9.18,3.24a13.25,13.25,0,0,0,10-4.08Q237,66.24,237,58.2V24.48h13.56v60.6H237V74.88a20,20,0,0,1-7.68,8.46,21.11,21.11,0,0,1-11,2.94q-10.08,0-15.48-6.78T197.4,60.36Z"/><path class="cls-2" d="M296.76,86.28a21.25,21.25,0,0,1-11.22-2.94,19.07,19.07,0,0,1-7.5-8.82V85.08H264.48V0H278V35.4a20.65,20.65,0,0,1,7.74-9,21.58,21.58,0,0,1,11.7-3.12,20.61,20.61,0,0,1,10.26,2.46,22,22,0,0,1,7.32,6.66,29.76,29.76,0,0,1,4.38,10,51.58,51.58,0,0,1,1.44,12.42,48.41,48.41,0,0,1-1.5,12.24,29.94,29.94,0,0,1-4.5,10,22.61,22.61,0,0,1-7.56,6.72A21.48,21.48,0,0,1,296.76,86.28Zm10.68-31.44q0-9.72-3.72-14.58T293,35.4a15.14,15.14,0,0,0-10.5,4.08Q278,43.56,278,52.32v4.92q0,8.76,4.2,12.84a13.81,13.81,0,0,0,10,4.08q7.44,0,11.34-5T307.44,54.84Z"/><path class="cls-2" d="M383.16,57.36h-34.8V85.08H334V6.24h52.8v13h-38.4V44.4h34.8Z"/><path class="cls-2" d="M419,84.84a12.36,12.36,0,0,1-2.28.42,34.34,34.34,0,0,1-3.84.18q-7.92,0-12.6-4t-4.68-12.84V0H409.2V67q0,3.48,2,4.92a8.31,8.31,0,0,0,4.92,1.44h1.44A10.41,10.41,0,0,0,419,73.2Z"/><path class="cls-2" d="M453.36,86.4A30.69,30.69,0,0,1,441,84a26,26,0,0,1-9.24-6.6,29,29,0,0,1-5.7-10,39.07,39.07,0,0,1-2-12.66,39.07,39.07,0,0,1,2-12.66,28.36,28.36,0,0,1,5.7-10A25.7,25.7,0,0,1,441,25.62a31.38,31.38,0,0,1,12.36-2.34,30.94,30.94,0,0,1,12.3,2.34,25.82,25.82,0,0,1,9.18,6.48,28.36,28.36,0,0,1,5.7,10,39.07,39.07,0,0,1,2,12.66,39.07,39.07,0,0,1-2,12.66,29,29,0,0,1-5.7,10,26.1,26.1,0,0,1-9.18,6.6A30.26,30.26,0,0,1,453.36,86.4Zm0-51A15.8,15.8,0,0,0,446.1,37a13.79,13.79,0,0,0-5,4.2,18.73,18.73,0,0,0-2.88,6.18,28.07,28.07,0,0,0-1,7.38,28.75,28.75,0,0,0,1,7.44,18.68,18.68,0,0,0,2.88,6.24,13.79,13.79,0,0,0,5,4.2,15.8,15.8,0,0,0,7.26,1.56,15.15,15.15,0,0,0,7.08-1.56,14.49,14.49,0,0,0,5-4.2,17.23,17.23,0,0,0,2.88-6.24,30.56,30.56,0,0,0,.9-7.44,29.84,29.84,0,0,0-.9-7.38,17.26,17.26,0,0,0-2.88-6.18,14.49,14.49,0,0,0-5-4.2A15.15,15.15,0,0,0,453.36,35.4Z"/><path class="cls-2" d="M567.12,85.08H549.6l-9-27-5-19.56-5,19.56-9,27H504.36l-20-60.6H498.6L513.36,75l16-50.52H542.4L558.48,75l14.76-50.52h13.92Z"/></g></g></svg>