<svg xmlns="http://www.w3.org/2000/svg" viewBox="0 0 80.24 85.71"><defs><style>.cls-1{fill:#0052cc;fill-rule:evenodd;}</style></defs><g id="图层_2" data-name="图层 2"><g id="图层_2-2" data-name="图层 2"><path class="cls-1" d="M26.4,22.46A14.17,14.17,0,0,1,20,27.74c-.85.34-2.62.79-2.62.79V57.17A13.52,13.52,0,0,1,20,58a14.48,14.48,0,0,1,4.63,23.55A14,14,0,0,1,20,84.61a13.84,13.84,0,0,1-5.72,1.08A14.3,14.3,0,0,1,1.08,76.9,14.44,14.44,0,0,1,4.17,61.29a14.73,14.73,0,0,1,7.26-3.89V28.31a14.9,14.9,0,0,1-7.26-3.89A14.44,14.44,0,0,1,1.08,8.81,14.36,14.36,0,0,1,14.29,0,14.53,14.53,0,0,1,20,1.08a14.14,14.14,0,0,1,7.71,7.73,14,14,0,0,1,1.09,5.72A14.19,14.19,0,0,1,26.4,22.46Zm-4.33,45a8.5,8.5,0,0,0-3.15-3.31,8.33,8.33,0,0,0-4.4-1.2,8.5,8.5,0,0,0-4.75,1.43,8.76,8.76,0,0,0-3.2,3.89,8.5,8.5,0,0,0-.46,4.91,8.6,8.6,0,0,0,11.66,6.29,8.87,8.87,0,0,0,3.89-3.2,8.54,8.54,0,0,0,.41-8.81Zm-12.3-46a8.55,8.55,0,0,0,12.3-3.08,8.47,8.47,0,0,0,1-4.46A8.65,8.65,0,0,0,21.66,9.5a8.87,8.87,0,0,0-3.89-3.2A8.57,8.57,0,0,0,6.11,12.59a8.5,8.5,0,0,0,.46,4.91A8.76,8.76,0,0,0,9.77,21.39Zm59.07,36a14.2,14.2,0,0,1,11.4,14A14.27,14.27,0,0,1,71.45,84.6a14.25,14.25,0,0,1-15.61-3.08,14.29,14.29,0,0,1-3.08-15.6A14.74,14.74,0,0,1,58,59.52a13.68,13.68,0,0,1,5.09-2.12V37.11h5.73ZM72,77.47a8.59,8.59,0,0,0,1.09-10.81,8.85,8.85,0,0,0-3.89-3.19A8.61,8.61,0,0,0,58,74.67a8.94,8.94,0,0,0,3.2,3.89A8.59,8.59,0,0,0,72,77.47Z"/><path class="cls-1" d="M61.12,13.73l-9.65,9.65,4,4.05,9.66-9.66,9.65,9.66,4-4.05-9.65-9.65,9.65-9.65-4-4L65.17,9.69,55.51,0l-4,4.05Z"/></g></g></svg>