<svg xmlns="http://www.w3.org/2000/svg" viewBox="0 0 457.68 86.4"><defs><style>.cls-1{fill:#0052cc;}</style></defs><g id="图层_2" data-name="图层 2"><g id="图层_1-2" data-name="图层 1"><path class="cls-1" d="M57.84,62.64q0,10.68-6.84,17.16T28.92,86.28q-11.16,0-17.7-1.92A64.61,64.61,0,0,1,0,80V66.24A65.45,65.45,0,0,0,13.62,71a65.88,65.88,0,0,0,15.66,2q7.68,0,10.86-2.7a8.9,8.9,0,0,0,3.18-7.14A8.39,8.39,0,0,0,39.78,56q-3.54-2.64-12.9-4.92Q12.48,48,6.24,42.36T0,27.24a20,20,0,0,1,7.32-16Q14.64,5,28.92,5A54.82,54.82,0,0,1,43.56,6.78a53.63,53.63,0,0,1,10.56,4V24.24A53.36,53.36,0,0,0,41,19.56a60.3,60.3,0,0,0-12.6-1.44q-6.72,0-10.44,2.34a7.64,7.64,0,0,0-3.72,6.9,7.49,7.49,0,0,0,3.78,6.54q3.78,2.46,13,4.74,13.68,3,20.22,8.46T57.84,62.64Z"/><path class="cls-1" d="M67.92,60.36V24.48H81.48V61q0,7,2.94,10.2T93.6,74.4a13.25,13.25,0,0,0,10-4.08q3.9-4.08,3.9-12.12V24.48h13.56v60.6H107.52V74.88a20,20,0,0,1-7.68,8.46,21.11,21.11,0,0,1-11,2.94q-10.08,0-15.48-6.78T67.92,60.36Z"/><path class="cls-1" d="M167.28,86.28a21.25,21.25,0,0,1-11.22-2.94,19.07,19.07,0,0,1-7.5-8.82V85.08H135V0h13.56V35.4a20.65,20.65,0,0,1,7.74-9A21.58,21.58,0,0,1,168,23.28a20.61,20.61,0,0,1,10.26,2.46,22,22,0,0,1,7.32,6.66,29.76,29.76,0,0,1,4.38,10,51.58,51.58,0,0,1,1.44,12.42,48.41,48.41,0,0,1-1.5,12.24,29.94,29.94,0,0,1-4.5,10,22.61,22.61,0,0,1-7.56,6.72A21.48,21.48,0,0,1,167.28,86.28ZM178,54.84q0-9.72-3.72-14.58T163.56,35.4a15.14,15.14,0,0,0-10.5,4.08q-4.5,4.08-4.5,12.84v4.92q0,8.76,4.2,12.84a13.81,13.81,0,0,0,10,4.08q7.44,0,11.34-5T178,54.84Z"/><path class="cls-1" d="M253.68,57.36h-34.8V85.08h-14.4V6.24h52.8v13h-38.4V44.4h34.8Z"/><path class="cls-1" d="M289.56,84.84a12.36,12.36,0,0,1-2.28.42,34.34,34.34,0,0,1-3.84.18q-7.92,0-12.6-4t-4.68-12.84V0h13.56V67q0,3.48,2,4.92a8.31,8.31,0,0,0,4.92,1.44h1.44a10.41,10.41,0,0,0,1.44-.12Z"/><path class="cls-1" d="M323.88,86.4A30.69,30.69,0,0,1,311.52,84a26,26,0,0,1-9.24-6.6,29,29,0,0,1-5.7-10,39.07,39.07,0,0,1-2-12.66,39.07,39.07,0,0,1,2-12.66,28.36,28.36,0,0,1,5.7-10,25.7,25.7,0,0,1,9.24-6.48,31.38,31.38,0,0,1,12.36-2.34,30.94,30.94,0,0,1,12.3,2.34,25.82,25.82,0,0,1,9.18,6.48,28.36,28.36,0,0,1,5.7,10,39.07,39.07,0,0,1,2,12.66,39.07,39.07,0,0,1-2,12.66,29,29,0,0,1-5.7,10,26.1,26.1,0,0,1-9.18,6.6A30.26,30.26,0,0,1,323.88,86.4Zm0-51A15.8,15.8,0,0,0,316.62,37a13.79,13.79,0,0,0-5,4.2,18.73,18.73,0,0,0-2.88,6.18,28.07,28.07,0,0,0-1,7.38,28.75,28.75,0,0,0,1,7.44,18.68,18.68,0,0,0,2.88,6.24,13.79,13.79,0,0,0,5,4.2,15.8,15.8,0,0,0,7.26,1.56A15.15,15.15,0,0,0,331,72.6a14.49,14.49,0,0,0,5-4.2,17.23,17.23,0,0,0,2.88-6.24,30.56,30.56,0,0,0,.9-7.44,29.84,29.84,0,0,0-.9-7.38,17.26,17.26,0,0,0-2.88-6.18,14.49,14.49,0,0,0-5-4.2A15.15,15.15,0,0,0,323.88,35.4Z"/><path class="cls-1" d="M437.64,85.08H420.12l-9-27-5-19.56-5,19.56-9,27H374.88l-20-60.6h14.28L383.88,75l16-50.52h13.08L429,75l14.76-50.52h13.92Z"/></g></g></svg>